<?xml version="1.0" encoding="UTF-8"?>
<svg id="Capa_2" data-name="Capa 2" xmlns="http://www.w3.org/2000/svg" viewBox="0 0 207.97 184.92">
  <defs>
    <style>
      .cls-1 {
        fill: #8435c4;
      }
    </style>
  </defs>
  <g id="Capa_1-2" data-name="Capa 1">
    <g>
      <g>
        <path class="cls-1" d="M117.12,131.87c-3.6-14.12-1.5-29.69,5.85-41.78.92-1.51,1.92-2.96,2.98-4.33-2.27-5.05-5.42-9.93-9.41-14.53-4.53-5.21-12.43-5.75-17.64-1.22-5.21,4.53-5.76,12.43-1.22,17.64,4.75,5.46,7.27,11,7.49,16.46.39,9.68-7.27,17.96-21.97,32.97-15.62,15.94-22.25,22.43-29.52,22.82-11.44.62-26.71-8.47-28.5-20.66-.91-6.19,1.85-11.95,3.93-15.25l19.31-20.26c4.76-5,4.57-12.91-.43-17.67s-12.91-4.57-17.67.43l-20.1,21.09c-.49.51-.93,1.06-1.33,1.65C1.8,119.76-1.2,131.72.44,142.87c1.81,12.33,9.05,23.54,20.39,31.57,9.49,6.73,20.93,10.48,31.74,10.48.81,0,1.63-.02,2.44-.06,17.28-.92,28.11-11.98,46.05-30.29.82-.84,1.63-1.66,2.43-2.49,5.24-11.36,12.93-19.48,13.51-20.08.04-.04.08-.08.12-.13Z"/>
        <path class="cls-1" d="M165.63,67.62c5.96,0,11.59.91,16.79,2.65,4.74-9.11,6.59-18.94,5.22-28.22-1.81-12.33-9.05-23.54-20.39-31.57C157.04,3.25,144.58-.55,133.08.06c-17.28.92-28.11,11.98-46.05,30.29-16.06,16.39-29.93,30.55-29.09,51.46.44,11.13,5.15,22.16,13.61,31.88,2.47,2.84,5.94,4.29,9.43,4.29,2.91,0,5.83-1.01,8.2-3.07,5.21-4.53,5.75-12.43,1.22-17.64-4.75-5.46-7.27-11-7.49-16.46-.39-9.68,7.27-17.96,21.97-32.97,15.62-15.94,22.25-22.43,29.52-22.82,11.46-.62,26.71,8.47,28.5,20.66.91,6.19-1.85,11.95-3.93,15.25l-8.08,8.48c2.1-.55,4.25-.98,6.47-1.26,2.8-.36,5.58-.54,8.26-.54Z"/>
      </g>
      <g>
        <path class="cls-1" d="M183.06,141.31c2.35-.58,10.64,5.87,12.58,7.71,2.86,2.72,5.98,6.89,7.92,10.33,3.76,6.67,8.82,18.21-2.79,19.75-22.11-1.51-46.79,1.95-68.61,0-15.54-1.39-1.73-23.02,3.79-28.75,1.92-1.99,10.18-8.83,12.67-8.67.96.06,3.17,1.78,4.41,2.3,9.4,3.92,17.84,3.62,27.02-.74.95-.45,2.29-1.75,3-1.93Z"/>
        <path class="cls-1" d="M162.13,94.15c34.22-4.35,35.3,48.5.78,45.3-25.9-2.4-26.29-42.05-.78-45.3Z"/>
      </g>
    </g>
  </g>
</svg>