<?xml version="1.0" encoding="UTF-8"?>
<svg id="Capa_2" data-name="Capa 2" xmlns="http://www.w3.org/2000/svg" viewBox="0 0 222.37 184.92">
  <defs>
    <style>
      .cls-1 {
        fill: #8435c4;
      }
    </style>
  </defs>
  <g id="Capa_1-2" data-name="Capa 1">
    <g>
      <g>
        <path class="cls-1" d="M127.14,90.89c.19-.22.39-.42.58-.64-2.25-6.64-6.01-13.07-11.18-19.02-4.53-5.21-12.43-5.75-17.64-1.22-5.21,4.53-5.76,12.43-1.22,17.64,4.75,5.46,7.27,11,7.49,16.46.39,9.68-7.27,17.96-21.97,32.97-15.62,15.94-22.25,22.43-29.52,22.82-11.44.62-26.71-8.47-28.5-20.66-.91-6.19,1.85-11.95,3.93-15.25l19.31-20.26c4.76-5,4.57-12.91-.43-17.67s-12.91-4.57-17.67.43l-20.1,21.09c-.49.51-.93,1.06-1.33,1.65C1.8,119.76-1.2,131.72.44,142.87c1.81,12.33,9.05,23.54,20.39,31.57,9.49,6.73,20.93,10.48,31.74,10.48.81,0,1.63-.02,2.44-.06,17.28-.92,28.11-11.98,46.05-30.29,3.51-3.58,6.92-7.06,10.09-10.52-2.41-19.54,3.22-38.36,16-53.16Z"/>
        <path class="cls-1" d="M184.11,66.7c3.47-8.08,4.72-16.57,3.53-24.65-1.81-12.33-9.05-23.54-20.39-31.57C157.04,3.25,144.58-.55,133.08.06c-17.28.92-28.11,11.98-46.05,30.29-16.06,16.39-29.93,30.55-29.09,51.46.44,11.13,5.15,22.16,13.61,31.88,2.47,2.84,5.94,4.29,9.43,4.29,2.91,0,5.83-1.01,8.2-3.07,5.21-4.53,5.75-12.43,1.22-17.64-4.75-5.46-7.27-11-7.49-16.46-.39-9.68,7.27-17.96,21.97-32.97,15.62-15.94,22.25-22.43,29.52-22.82,11.46-.62,26.71,8.47,28.5,20.66.91,6.19-1.85,11.95-3.93,15.25l-15.18,15.93c10.89-6.6,23.51-10.29,36.23-10.29,1.36,0,2.72.05,4.07.13Z"/>
      </g>
      <g>
        <path class="cls-1" d="M152.64,142.94c.99-1.21.67-2.76.44-3.89-.03-.15-.06-.29-.07-.29-.12-5.66.17-9.36,2.08-13.84,4.2-9.82,13.61-15.92,24.57-15.92,5.17,0,10.16,1.4,14.57,4.06l-5.87,9.06h31.03l-9.52-29.4-6.12,7.68c-7.15-4.85-15.31-7.4-23.73-7.4-12.4,0-24.7,5.67-32.89,15.16-8.06,9.34-11.48,21.35-9.64,33.81l.29,1.98h12.7c.85,0,1.63-.37,2.15-1.01Z"/>
        <path class="cls-1" d="M222,129.98l-.26-2.02h-16.16l.49,2.73c1.43,8.01-.6,15.81-5.74,21.95-5.2,6.21-13.01,9.92-20.89,9.92-4.99,0-9.85-1.48-14.17-4.3l5.95-8.91h-31.02c3.01,10.51,6.01,21.03,9.02,31.54,2.15-3.3,4.31-6.6,6.46-9.89,7.13,4.9,15.26,7.48,23.66,7.48,12.34,0,24.19-5.42,32.5-14.88,8.15-9.27,11.76-21.21,10.16-33.62Z"/>
      </g>
    </g>
  </g>
</svg>