<?xml version="1.0" encoding="UTF-8"?>
<svg id="Capa_2" data-name="Capa 2" xmlns="http://www.w3.org/2000/svg" viewBox="0 0 211.96 184.92">
  <defs>
    <style>
      .cls-1 {
        fill: #8435c4;
      }
    </style>
  </defs>
  <g id="Capa_1-2" data-name="Capa 1">
    <g>
      <g>
        <path class="cls-1" d="M129.77,98.86c-1.33-9.67-5.85-19.15-13.23-27.63-4.53-5.21-12.43-5.75-17.64-1.22-5.21,4.53-5.76,12.43-1.22,17.64,4.75,5.46,7.27,11,7.49,16.46.39,9.68-7.27,17.96-21.97,32.97-15.62,15.94-22.25,22.43-29.52,22.82-11.44.62-26.71-8.47-28.5-20.66-.91-6.19,1.85-11.95,3.93-15.25l19.31-20.26c4.76-5,4.57-12.91-.43-17.67s-12.91-4.57-17.67.43l-20.1,21.09c-.49.51-.93,1.06-1.33,1.65C1.8,119.76-1.2,131.72.44,142.87c1.81,12.33,9.05,23.54,20.39,31.57,9.49,6.73,20.93,10.48,31.74,10.48.81,0,1.63-.02,2.44-.06,17.28-.92,28.11-11.98,46.05-30.29.72-.73,1.43-1.46,2.13-2.18-2.12-4.79-3.31-10.07-3.31-15.59,0-18.17,12.83-33.76,29.89-37.94Z"/>
        <path class="cls-1" d="M182.54,70.04c4.65-9.05,6.46-18.79,5.1-27.99-1.81-12.33-9.05-23.54-20.39-31.57C157.04,3.25,144.58-.55,133.08.06c-17.28.92-28.11,11.98-46.05,30.29-16.06,16.39-29.93,30.55-29.09,51.46.44,11.13,5.15,22.16,13.61,31.88,2.47,2.84,5.94,4.29,9.43,4.29,2.91,0,5.83-1.01,8.2-3.07,5.21-4.53,5.75-12.43,1.22-17.64-4.75-5.46-7.27-11-7.49-16.46-.39-9.68,7.27-17.96,21.97-32.97,15.62-15.94,22.25-22.43,29.52-22.82,11.46-.62,26.71,8.47,28.5,20.66.91,6.19-1.85,11.95-3.93,15.25l-16.15,16.95c6.97-6.38,16.22-10.29,26.25-10.29,4.71,0,9.25.87,13.46,2.44Z"/>
      </g>
      <path class="cls-1" d="M199.24,124.08h-17.44v-17.44c0-7.03-5.69-12.72-12.72-12.72s-12.72,5.69-12.72,12.72v17.44h-17.44c-7.03,0-12.72,5.69-12.72,12.72s5.69,12.72,12.72,12.72h17.44v17.44c0,7.03,5.69,12.72,12.72,12.72s12.72-5.69,12.72-12.72v-17.44h17.44c7.03,0,12.72-5.69,12.72-12.72s-5.69-12.72-12.72-12.72Z"/>
    </g>
  </g>
</svg>